<svg width="262" height="71" viewBox="0 0 262 71" fill="none" xmlns="http://www.w3.org/2000/svg">
<path d="M0.82 34.8C0.82 31.0733 1.51333 27.8017 2.9 24.985C4.33 22.1683 6.25833 20.0017 8.685 18.485C11.1117 16.9683 13.82 16.21 16.81 16.21C19.1933 16.21 21.36 16.7083 23.31 17.705C25.3033 18.7017 26.8633 20.045 27.99 21.735V4.9H39.105V53H27.99V47.8C26.95 49.5333 25.455 50.92 23.505 51.96C21.5983 53 19.3667 53.52 16.81 53.52C13.82 53.52 11.1117 52.7617 8.685 51.245C6.25833 49.685 4.33 47.4967 2.9 44.68C1.51333 41.82 0.82 38.5267 0.82 34.8ZM27.99 34.865C27.99 32.0917 27.21 29.9033 25.65 28.3C24.1333 26.6967 22.27 25.895 20.06 25.895C17.85 25.895 15.965 26.6967 14.405 28.3C12.8883 29.86 12.13 32.0267 12.13 34.8C12.13 37.5733 12.8883 39.7833 14.405 41.43C15.965 43.0333 17.85 43.835 20.06 43.835C22.27 43.835 24.1333 43.0333 25.65 41.43C27.21 39.8267 27.99 37.6383 27.99 34.865ZM55.6612 22.775C56.9612 20.7817 58.5862 19.2217 60.5362 18.095C62.4862 16.925 64.6529 16.34 67.0362 16.34V28.105H63.9812C61.2079 28.105 59.1279 28.7117 57.7412 29.925C56.3545 31.095 55.6612 33.175 55.6612 36.165V53H44.5462V16.73H55.6612V22.775ZM67.5389 34.8C67.5389 31.0733 68.2323 27.8017 69.6189 24.985C71.0489 22.1683 72.9773 20.0017 75.4039 18.485C77.8306 16.9683 80.5389 16.21 83.5289 16.21C86.0856 16.21 88.3173 16.73 90.2239 17.77C92.1739 18.81 93.6689 20.175 94.7089 21.865V16.73H105.824V53H94.7089V47.865C93.6256 49.555 92.109 50.92 90.1589 51.96C88.2523 53 86.0206 53.52 83.4639 53.52C80.5173 53.52 77.8306 52.7617 75.4039 51.245C72.9773 49.685 71.0489 47.4967 69.6189 44.68C68.2323 41.82 67.5389 38.5267 67.5389 34.8ZM94.7089 34.865C94.7089 32.0917 93.9289 29.9033 92.369 28.3C90.8523 26.6967 88.9889 25.895 86.7789 25.895C84.5689 25.895 82.6839 26.6967 81.1239 28.3C79.6073 29.86 78.8489 32.0267 78.8489 34.8C78.8489 37.5733 79.6073 39.7833 81.1239 41.43C82.6839 43.0333 84.5689 43.835 86.7789 43.835C88.9889 43.835 90.8523 43.0333 92.369 41.43C93.9289 39.8267 94.7089 37.6383 94.7089 34.865ZM125.045 16.21C127.602 16.21 129.833 16.73 131.74 17.77C133.69 18.81 135.185 20.175 136.225 21.865V16.73H147.34V52.935C147.34 56.2717 146.668 59.2833 145.325 61.97C144.025 64.7 142.01 66.8667 139.28 68.47C136.593 70.0733 133.235 70.875 129.205 70.875C123.832 70.875 119.477 69.5967 116.14 67.04C112.803 64.5267 110.897 61.1033 110.42 56.77H121.405C121.752 58.1567 122.575 59.24 123.875 60.02C125.175 60.8433 126.778 61.255 128.685 61.255C130.982 61.255 132.802 60.5833 134.145 59.24C135.532 57.94 136.225 55.8383 136.225 52.935V47.8C135.142 49.49 133.647 50.8767 131.74 51.96C129.833 53 127.602 53.52 125.045 53.52C122.055 53.52 119.347 52.7617 116.92 51.245C114.493 49.685 112.565 47.4967 111.135 44.68C109.748 41.82 109.055 38.5267 109.055 34.8C109.055 31.0733 109.748 27.8017 111.135 24.985C112.565 22.1683 114.493 20.0017 116.92 18.485C119.347 16.9683 122.055 16.21 125.045 16.21ZM136.225 34.865C136.225 32.0917 135.445 29.9033 133.885 28.3C132.368 26.6967 130.505 25.895 128.295 25.895C126.085 25.895 124.2 26.6967 122.64 28.3C121.123 29.86 120.365 32.0267 120.365 34.8C120.365 37.5733 121.123 39.7833 122.64 41.43C124.2 43.0333 126.085 43.835 128.295 43.835C130.505 43.835 132.368 43.0333 133.885 41.43C135.445 39.8267 136.225 37.6383 136.225 34.865ZM166.561 16.21C169.118 16.21 171.35 16.73 173.256 17.77C175.206 18.81 176.701 20.175 177.741 21.865V16.73H188.856V52.935C188.856 56.2717 188.185 59.2833 186.841 61.97C185.541 64.7 183.526 66.8667 180.796 68.47C178.11 70.0733 174.751 70.875 170.721 70.875C165.348 70.875 160.993 69.5967 157.656 67.04C154.32 64.5267 152.413 61.1033 151.936 56.77H162.921C163.268 58.1567 164.091 59.24 165.391 60.02C166.691 60.8433 168.295 61.255 170.201 61.255C172.498 61.255 174.318 60.5833 175.661 59.24C177.048 57.94 177.741 55.8383 177.741 52.935V47.8C176.658 49.49 175.163 50.8767 173.256 51.96C171.35 53 169.118 53.52 166.561 53.52C163.571 53.52 160.863 52.7617 158.436 51.245C156.01 49.685 154.081 47.4967 152.651 44.68C151.265 41.82 150.571 38.5267 150.571 34.8C150.571 31.0733 151.265 27.8017 152.651 24.985C154.081 22.1683 156.01 20.0017 158.436 18.485C160.863 16.9683 163.571 16.21 166.561 16.21ZM177.741 34.865C177.741 32.0917 176.961 29.9033 175.401 28.3C173.885 26.6967 172.021 25.895 169.811 25.895C167.601 25.895 165.716 26.6967 164.156 28.3C162.64 29.86 161.881 32.0267 161.881 34.8C161.881 37.5733 162.64 39.7833 164.156 41.43C165.716 43.0333 167.601 43.835 169.811 43.835C172.021 43.835 173.885 43.0333 175.401 41.43C176.961 39.8267 177.741 37.6383 177.741 34.865ZM199.888 12.96C197.938 12.96 196.334 12.3967 195.078 11.27C193.864 10.1 193.258 8.67 193.258 6.98C193.258 5.24667 193.864 3.81666 195.078 2.69C196.334 1.52 197.938 0.934996 199.888 0.934996C201.794 0.934996 203.354 1.52 204.568 2.69C205.824 3.81666 206.453 5.24667 206.453 6.98C206.453 8.67 205.824 10.1 204.568 11.27C203.354 12.3967 201.794 12.96 199.888 12.96ZM205.413 16.73V53H194.298V16.73H205.413ZM227.377 53.52C223.824 53.52 220.617 52.7617 217.757 51.245C214.941 49.7283 212.709 47.5617 211.062 44.745C209.459 41.9283 208.657 38.635 208.657 34.865C208.657 31.1383 209.481 27.8667 211.127 25.05C212.774 22.19 215.027 20.0017 217.887 18.485C220.747 16.9683 223.954 16.21 227.507 16.21C231.061 16.21 234.267 16.9683 237.127 18.485C239.987 20.0017 242.241 22.19 243.887 25.05C245.534 27.8667 246.357 31.1383 246.357 34.865C246.357 38.5917 245.512 41.885 243.822 44.745C242.176 47.5617 239.901 49.7283 236.997 51.245C234.137 52.7617 230.931 53.52 227.377 53.52ZM227.377 43.9C229.501 43.9 231.299 43.12 232.772 41.56C234.289 40 235.047 37.7683 235.047 34.865C235.047 31.9617 234.311 29.73 232.837 28.17C231.407 26.61 229.631 25.83 227.507 25.83C225.341 25.83 223.542 26.61 222.112 28.17C220.682 29.6867 219.967 31.9183 219.967 34.865C219.967 37.7683 220.661 40 222.047 41.56C223.477 43.12 225.254 43.9 227.377 43.9Z" fill="white"/>
<path d="M254.854 53.52C252.904 53.52 251.301 52.9567 250.044 51.83C248.831 50.66 248.224 49.23 248.224 47.54C248.224 45.8067 248.831 44.355 250.044 43.185C251.301 42.015 252.904 41.43 254.854 41.43C256.761 41.43 258.321 42.015 259.534 43.185C260.791 44.355 261.419 45.8067 261.419 47.54C261.419 49.23 260.791 50.66 259.534 51.83C258.321 52.9567 256.761 53.52 254.854 53.52Z" fill="#00D763"/>
</svg>
